<svg width="498px" height="1693px" viewBox="0 0 498 1693" version="1.1" xmlns="http://www.w3.org/2000/svg" xmlns:xlink="http://www.w3.org/1999/xlink">
    <!-- Generator: Sketch 43.2 (39069) - http://www.bohemiancoding.com/sketch -->
    <desc>Created with Sketch.</desc>
    <defs></defs>
    <g id="Page-1" stroke="none" stroke-width="1" fill="none" fill-rule="evenodd" font-size="12" font-family=".AppleSystemUIFont" font-weight="normal">
        <text id="&lt;svg-width=&quot;7834px&quot;" fill="#959BA5">
            <tspan x="0" y="-5"></tspan>
            <tspan x="0" y="10">&lt;svg width="7834px" height="5242px" viewBox="0 0 7834 5242" version="1.1" </tspan>
            <tspan x="0" y="25">xmlns="http://www.w3.org/2000/svg" xmlns:xlink="http://www.w3.org/1999/xlink"&gt;</tspan>
            <tspan x="0" y="40">    &lt;!-- Generator: Sketch 43.2 (39069) - http://www.bohemiancoding.com/sketch --&gt;</tspan>
            <tspan x="0" y="55">    &lt;desc&gt;Created with Sketch.&lt;/desc&gt;</tspan>
            <tspan x="0" y="70">    &lt;defs&gt;&lt;/defs&gt;</tspan>
            <tspan x="0" y="85">    &lt;g id="Page-1" stroke="none" stroke-width="1" fill="none" fill-rule="evenodd"&gt;</tspan>
            <tspan x="0" y="100">        &lt;g id="Window" transform="translate(-17296.000000, -1997.000000)"&gt;</tspan>
            <tspan x="0" y="115">            &lt;g id="g4761" transform="translate(17296.000000, 1997.851322)"&gt;</tspan>
            <tspan x="0" y="130">                &lt;path d="M315,122.973803 L7587,122.973803 C7723,122.973803 </tspan>
            <tspan x="0" y="145">7834,227.974512 7834,356.624029 L7834,5006.92568 C7834,5135.5752 </tspan>
            <tspan x="0" y="160">7723,5240.57591 7587,5240.57591 L315,5240.57591 C179,5240.57591 68,5135.5752 </tspan>
            <tspan x="0" y="175">68,5006.92568 L68,356.624029 C68,227.974512 179,122.973803 315,122.973803 Z" </tspan>
            <tspan x="0" y="190">id="path4763" fill-opacity="0.10196102" fill="#000000"&gt;&lt;/path&gt;</tspan>
            <tspan x="0" y="205">                &lt;path d="M247,49.1895212 L7518,49.1895212 C7654,49.1895212 </tspan>
            <tspan x="0" y="220">7765,154.19023 7765,282.839747 L7765,4934.08736 C7765,5061.79092 </tspan>
            <tspan x="0" y="235">7654,5166.79163 7518,5166.79163 L247,5166.79163 C111,5166.79163 0,5061.79092 </tspan>
            <tspan x="0" y="250">0,4934.08736 L0,282.839747 C0,154.19023 111,49.1895212 247,49.1895212 Z" </tspan>
            <tspan x="0" y="265">id="path4765" fill="#E6E6E6"&gt;&lt;/path&gt;</tspan>
            <tspan x="0" y="280">                &lt;path d="M247,0 L7518,0 C7654,0 7765,105.000709 7765,233.650226 </tspan>
            <tspan x="0" y="295">L7765,4884.89783 C7765,5013.54735 7654,5118.54806 7518,5118.54806 </tspan>
            <tspan x="0" y="310">L247,5118.54806 C111,5118.54806 0,5013.54735 0,4884.89783 L0,233.650226 </tspan>
            <tspan x="0" y="325">C0,105.000709 111,0 247,0 Z" id="path4767" fill="#FFFFFF"&gt;&lt;/path&gt;</tspan>
            <tspan x="0" y="340">                &lt;path d="M402,157.028087 L7396,157.028087 C7524,157.028087 </tspan>
            <tspan x="0" y="355">7629,255.407129 7629,376.489027 L7629,4760.03213 C7629,4881.11402 </tspan>
            <tspan x="0" y="370">7524,4980.43902 7396,4980.43902 L402,4980.43902 C273,4980.43902 </tspan>
            <tspan x="0" y="385">169,4881.11402 169,4760.03213 L169,376.489027 C169,255.407129 273,157.028087 </tspan>
            <tspan x="0" y="400">402,157.028087 Z" id="path4769" fill="#E6E6E6"&gt;&lt;/path&gt;</tspan>
            <tspan x="0" y="415">                &lt;path d="M348,127.703565 L7350,127.703565 C7477,127.703565 </tspan>
            <tspan x="0" y="430">7581,226.082607 7581,346.218553 L7581,4700.43713 C7581,4820.57308 </tspan>
            <tspan x="0" y="445">7477,4918.95212 7350,4918.95212 L348,4918.95212 C221,4918.95212 </tspan>
            <tspan x="0" y="460">117,4820.57308 117,4700.43713 L117,346.218553 C117,226.082607 221,127.703565 </tspan>
            <tspan x="0" y="475">348,127.703565 Z" id="path4771" fill="#F1C383"&gt;&lt;/path&gt;</tspan>
            <tspan x="0" y="490">                &lt;path d="M345,70.9464248 L7302,70.9464248 C7427,70.9464248 </tspan>
            <tspan x="0" y="505">7530,167.433562 7530,285.677604 L7530,4574.62547 C7530,4692.86951 </tspan>
            <tspan x="0" y="520">7427,4790.3026 7302,4790.3026 L345,4790.3026 C219,4790.3026 117,4692.86951 </tspan>
            <tspan x="0" y="535">117,4574.62547 L117,285.677604 C117,167.433562 219,70.9464248 345,70.9464248 </tspan>
            <tspan x="0" y="550">Z" id="path4773" fill="#FAEECC"&gt;&lt;/path&gt;</tspan>
            <tspan x="0" y="565">                &lt;g id="g4775" transform="translate(156.000000, 99.324995)"&gt;</tspan>
            <tspan x="0" y="580">                    &lt;path d="M225,0 L7109,0 C7233,0 7334,95.5411854 7334,212.839274 </tspan>
            <tspan x="0" y="595">L7334,4448.81381 C7334,4566.1119 7233,4661.65308 7109,4661.65308 </tspan>
            <tspan x="0" y="610">L225,4661.65308 C102,4661.65308 0,4566.1119 0,4448.81381 L0,212.839274 </tspan>
            <tspan x="0" y="625">C0,95.5411854 102,0 225,0 Z" id="path4777" fill="#FAEDC9"&gt;&lt;/path&gt;</tspan>
            <tspan x="0" y="640">                    &lt;path d="M262,28.3785699 L7072,28.3785699 C7194,28.3785699 </tspan>
            <tspan x="0" y="655">7294,122.973803 7294,238.379987 L7294,4423.2731 C7294,4538.67928 </tspan>
            <tspan x="0" y="670">7194,4633.27451 7072,4633.27451 L262,4633.27451 C140,4633.27451 </tspan>
            <tspan x="0" y="685">40,4538.67928 40,4423.2731 L40,238.379987 C40,122.973803 140,28.3785699 </tspan>
            <tspan x="0" y="700">262,28.3785699 Z" id="path4779" fill="#F9ECC6"&gt;&lt;/path&gt;</tspan>
            <tspan x="0" y="715">                    &lt;path d="M299,57.7030922 L7035,57.7030922 C7156,57.7030922 </tspan>
            <tspan x="0" y="730">7255,150.406421 7255,264.866652 L7255,4396.78643 C7255,4511.24666 </tspan>
            <tspan x="0" y="745">7156,4604.89594 7035,4604.89594 L299,4604.89594 C178,4604.89594 </tspan>
            <tspan x="0" y="760">79,4511.24666 79,4396.78643 L79,264.866652 C79,150.406421 178,57.7030922 </tspan>
            <tspan x="0" y="775">299,57.7030922 Z" id="path4781" fill="#F9EBC2"&gt;&lt;/path&gt;</tspan>
            <tspan x="0" y="790">                    &lt;path d="M336,86.0816621 L6999,86.0816621 C7118,86.0816621 </tspan>
            <tspan x="0" y="805">7215,177.839038 7215,291.353318 L7215,4371.24572 C7215,4483.81405 </tspan>
            <tspan x="0" y="820">7118,4575.57142 6999,4575.57142 L336,4575.57142 C217,4575.57142 </tspan>
            <tspan x="0" y="835">119,4483.81405 119,4371.24572 L119,291.353318 C119,177.839038 217,86.0816621 </tspan>
            <tspan x="0" y="850">336,86.0816621 Z" id="path4783" fill="#F8EABF"&gt;&lt;/path&gt;</tspan>
            <tspan x="0" y="865">                    &lt;path d="M372,114.460232 L6962,114.460232 C7080,114.460232 </tspan>
            <tspan x="0" y="880">7176,205.271656 7176,316.894031 L7176,4344.75905 C7176,4456.38143 </tspan>
            <tspan x="0" y="895">7080,4547.19285 6962,4547.19285 L372,4547.19285 C255,4547.19285 </tspan>
            <tspan x="0" y="910">159,4456.38143 159,4344.75905 L159,316.894031 C159,205.271656 255,114.460232 </tspan>
            <tspan x="0" y="925">372,114.460232 Z" id="path4785" fill="#F8E9BC"&gt;&lt;/path&gt;</tspan>
            <tspan x="0" y="940">                    &lt;path d="M409,143.784754 L6925,143.784754 C7041,143.784754 </tspan>
            <tspan x="0" y="955">7136,232.704273 7136,343.380696 L7136,4319.21834 C7136,4428.94881 </tspan>
            <tspan x="0" y="970">7041,4518.81428 6925,4518.81428 L409,4518.81428 C293,4518.81428 </tspan>
            <tspan x="0" y="985">198,4428.94881 198,4319.21834 L198,343.380696 C198,232.704273 </tspan>
            <tspan x="0" y="1000">293,143.784754 409,143.784754 Z" id="path4787" fill="#F7E8B9"&gt;&lt;/path&gt;</tspan>
            <tspan x="0" y="1015">                    &lt;path d="M446,172.163324 L6888,172.163324 C7003,172.163324 </tspan>
            <tspan x="0" y="1030">7097,261.082843 7097,368.921409 L7097,4292.73168 C7097,4401.51619 </tspan>
            <tspan x="0" y="1045">7003,4489.48976 6888,4489.48976 L446,4489.48976 C331,4489.48976 </tspan>
            <tspan x="0" y="1060">238,4401.51619 238,4292.73168 L238,368.921409 C238,261.082843 331,172.163324 </tspan>
            <tspan x="0" y="1075">446,172.163324 Z" id="path4789" fill="#F7E7B6"&gt;&lt;/path&gt;</tspan>
            <tspan x="0" y="1090">                    &lt;path d="M483,200.541894 L6852,200.541894 C6965,200.541894 </tspan>
            <tspan x="0" y="1105">7057,288.515461 7057,395.408074 L7057,4266.24501 C7057,4374.08358 </tspan>
            <tspan x="0" y="1120">6965,4461.11119 6852,4461.11119 L483,4461.11119 C370,4461.11119 277,4374.08358 </tspan>
            <tspan x="0" y="1135">277,4266.24501 L277,395.408074 C277,288.515461 370,200.541894 </tspan>
            <tspan x="0" y="1150">483,200.541894 Z" id="path4791" fill="#F6E6B3"&gt;&lt;/path&gt;</tspan>
            <tspan x="0" y="1165">                    &lt;path d="M520,228.920464 L6815,228.920464 C6926,228.920464 </tspan>
            <tspan x="0" y="1180">7018,315.948078 7018,420.948787 L7018,4240.7043 C7018,4345.70501 </tspan>
            <tspan x="0" y="1195">6926,4432.73262 6815,4432.73262 L520,4432.73262 C408,4432.73262 </tspan>
            <tspan x="0" y="1210">317,4345.70501 317,4240.7043 L317,420.948787 C317,315.948078 408,228.920464 </tspan>
            <tspan x="0" y="1225">520,228.920464 Z" id="path4793" fill="#F6E5AF"&gt;&lt;/path&gt;</tspan>
            <tspan x="0" y="1240">                    &lt;path d="M556,258.244986 L6778,258.244986 C6888,258.244986 </tspan>
            <tspan x="0" y="1255">6978,343.380696 6978,447.435452 L6978,4214.21763 C6978,4318.27239 </tspan>
            <tspan x="0" y="1270">6888,4403.4081 6778,4403.4081 L556,4403.4081 C446,4403.4081 356,4318.27239 </tspan>
            <tspan x="0" y="1285">356,4214.21763 L356,447.435452 C356,343.380696 446,258.244986 </tspan>
            <tspan x="0" y="1300">556,258.244986 Z" id="path4795" fill="#F5E4AC"&gt;&lt;/path&gt;</tspan>
            <tspan x="0" y="1315">                &lt;/g&gt;</tspan>
            <tspan x="0" y="1330">                &lt;path d="M749,385.948551 L6897,385.948551 C7006,385.948551 </tspan>
            <tspan x="0" y="1345">7095,470.138308 7095,572.30116 L7095,4288.00191 C7095,4390.16477 </tspan>
            <tspan x="0" y="1360">7006,4474.35452 6897,4474.35452 L749,4474.35452 C641,4474.35452 </tspan>
            <tspan x="0" y="1375">552,4390.16477 552,4288.00191 L552,572.30116 C552,470.138308 641,385.948551 </tspan>
            <tspan x="0" y="1390">749,385.948551 Z" id="path4797" fill="#F5E3A9"&gt;&lt;/path&gt;</tspan>
            <tspan x="0" y="1405">                &lt;path d="M7358,4505.57095 C7427,4505.57095 7483,4558.54428 </tspan>
            <tspan x="0" y="1420">7483,4623.81499 C7483,4689.0857 7427,4743.00498 7358,4743.00498 </tspan>
            <tspan x="0" y="1435">C7288,4743.00498 7232,4689.0857 7232,4623.81499 C7232,4558.54428 </tspan>
            <tspan x="0" y="1450">7288,4505.57095 7358,4505.57095 Z" id="path4799" fill="#FFFFFF"&gt;&lt;/path&gt;</tspan>
            <tspan x="0" y="1465">                &lt;path d="M7166,4626.65285 C7203,4626.65285 7233,4655.03142 </tspan>
            <tspan x="0" y="1480">7233,4690.97761 C7233,4725.97784 7203,4754.35641 7166,4754.35641 </tspan>
            <tspan x="0" y="1495">C7129,4754.35641 7098,4725.97784 7098,4690.97761 C7098,4655.03142 </tspan>
            <tspan x="0" y="1510">7129,4626.65285 7166,4626.65285 Z" id="path4801" fill="#FFFFFF"&gt;&lt;/path&gt;</tspan>
            <tspan x="0" y="1525">                &lt;path d="M362,124.865708 C469,124.865708 556,207.16356 </tspan>
            <tspan x="0" y="1540">556,308.38046 C556,409.597359 469,491.895212 362,491.895212 C255,491.895212 </tspan>
            <tspan x="0" y="1555">168,409.597359 168,308.38046 C168,207.16356 255,124.865708 362,124.865708 Z" </tspan>
            <tspan x="0" y="1570">id="path4803" fill="#FFFFFF"&gt;&lt;/path&gt;</tspan>
            <tspan x="0" y="1585">                &lt;path d="M661,103.108804 C720,103.108804 768,148.514516 </tspan>
            <tspan x="0" y="1600">768,204.325703 C768,260.136891 720,305.542603 661,305.542603 </tspan>
            <tspan x="0" y="1615">C602,305.542603 554,260.136891 554,204.325703 C554,148.514516 </tspan>
            <tspan x="0" y="1630">602,103.108804 661,103.108804 Z" id="path4805" fill="#FFFFFF"&gt;&lt;/path&gt;</tspan>
            <tspan x="0" y="1645">            &lt;/g&gt;</tspan>
            <tspan x="0" y="1660">        &lt;/g&gt;</tspan>
            <tspan x="0" y="1675">    &lt;/g&gt;</tspan>
            <tspan x="0" y="1690">&lt;/svg&gt;</tspan>
        </text>
    </g>
</svg>